<svg width="400" height="400" viewBox="0 0 400 400" xmlns="http://www.w3.org/2000/svg"><path width="120" height="120" rx="24" fill="black" d="M80 0H320A80 80 0 0 1 400 80V320A80 80 0 0 1 320 400H80A80 80 0 0 1 0 320V80A80 80 0 0 1 80 0z"/><path d="M133.333 133.333c0 -33.333 33.333 -33.333 66.667 -33.333s66.667 0 66.667 33.333 -33.333 33.333 -66.667 33.333 -66.667 0 -66.667 33.333 33.333 33.333 66.667 33.333 66.667 0 66.667 33.333 -33.333 33.333 -66.667 33.333 -66.667 0 -66.667 -33.333" fill="none" stroke="white" stroke-width="33.333333333333336" stroke-linecap="round" stroke-linejoin="round"/></svg>